<?xml version="1.0" encoding="UTF-8" standalone="no"?>
<!DOCTYPE svg PUBLIC "-//W3C//DTD SVG 1.1//EN" "http://www.w3.org/Graphics/SVG/1.1/DTD/svg11.dtd">
<!-- Created with matplotlib (https://matplotlib.org/) -->
<svg height="425.52pt" version="1.1" viewBox="0 0 497.52 425.52" width="497.52pt" xmlns="http://www.w3.org/2000/svg" xmlns:xlink="http://www.w3.org/1999/xlink">
 <metadata>
  <rdf:RDF xmlns:cc="http://creativecommons.org/ns#" xmlns:dc="http://purl.org/dc/elements/1.1/" xmlns:rdf="http://www.w3.org/1999/02/22-rdf-syntax-ns#">
   <cc:Work>
    <dc:type rdf:resource="http://purl.org/dc/dcmitype/StillImage"/>
    <dc:date>2024-04-09T14:24:38.554757</dc:date>
    <dc:format>image/svg+xml</dc:format>
    <dc:creator>
     <cc:Agent>
      <dc:title>Matplotlib v3.3.2, https://matplotlib.org/</dc:title>
     </cc:Agent>
    </dc:creator>
   </cc:Work>
  </rdf:RDF>
 </metadata>
 <defs>
  <style type="text/css">*{stroke-linecap:butt;stroke-linejoin:round;}</style>
 </defs>
 <g id="figure_1">
  <g id="patch_1">
   <path d="M 0 425.52  L 497.52 425.52  L 497.52 0  L 0 0  z " style="fill:#ffffff;"/>
  </g>
  <g id="axes_1">
   <g id="patch_2">
    <path d="M 50.779863 249.713917  L 452.383664 249.713917  L 452.383664 18.17325  L 50.779863 18.17325  z " style="fill:#ffffff;"/>
   </g>
   <g id="matplotlib.axis_1">
    <g id="xtick_1">
     <g id="line2d_1">
      <path clip-path="url(#pb7ebd65f80)" d="M 69.034581 249.713917  L 69.034581 18.17325  " style="fill:none;stroke:#b0b0b0;stroke-linecap:square;stroke-width:0.8;"/>
     </g>
     <g id="line2d_2">
      <defs>
       <path d="M 0 0  L 0 3.5  " id="ma1cf70900a" style="stroke:#000000;stroke-width:0.8;"/>
      </defs>
      <g>
       <use style="stroke:#000000;stroke-width:0.8;" x="69.034581" xlink:href="#ma1cf70900a" y="249.713917"/>
      </g>
     </g>
    </g>
    <g id="xtick_2">
     <g id="line2d_3">
      <path clip-path="url(#pb7ebd65f80)" d="M 119.741286 249.713917  L 119.741286 18.17325  " style="fill:none;stroke:#b0b0b0;stroke-linecap:square;stroke-width:0.8;"/>
     </g>
     <g id="line2d_4">
      <g>
       <use style="stroke:#000000;stroke-width:0.8;" x="119.741286" xlink:href="#ma1cf70900a" y="249.713917"/>
      </g>
     </g>
    </g>
    <g id="xtick_3">
     <g id="line2d_5">
      <path clip-path="url(#pb7ebd65f80)" d="M 170.447992 249.713917  L 170.447992 18.17325  " style="fill:none;stroke:#b0b0b0;stroke-linecap:square;stroke-width:0.8;"/>
     </g>
     <g id="line2d_6">
      <g>
       <use style="stroke:#000000;stroke-width:0.8;" x="170.447992" xlink:href="#ma1cf70900a" y="249.713917"/>
      </g>
     </g>
    </g>
    <g id="xtick_4">
     <g id="line2d_7">
      <path clip-path="url(#pb7ebd65f80)" d="M 221.154698 249.713917  L 221.154698 18.17325  " style="fill:none;stroke:#b0b0b0;stroke-linecap:square;stroke-width:0.8;"/>
     </g>
     <g id="line2d_8">
      <g>
       <use style="stroke:#000000;stroke-width:0.8;" x="221.154698" xlink:href="#ma1cf70900a" y="249.713917"/>
      </g>
     </g>
    </g>
    <g id="xtick_5">
     <g id="line2d_9">
      <path clip-path="url(#pb7ebd65f80)" d="M 271.861403 249.713917  L 271.861403 18.17325  " style="fill:none;stroke:#b0b0b0;stroke-linecap:square;stroke-width:0.8;"/>
     </g>
     <g id="line2d_10">
      <g>
       <use style="stroke:#000000;stroke-width:0.8;" x="271.861403" xlink:href="#ma1cf70900a" y="249.713917"/>
      </g>
     </g>
    </g>
    <g id="xtick_6">
     <g id="line2d_11">
      <path clip-path="url(#pb7ebd65f80)" d="M 322.568109 249.713917  L 322.568109 18.17325  " style="fill:none;stroke:#b0b0b0;stroke-linecap:square;stroke-width:0.8;"/>
     </g>
     <g id="line2d_12">
      <g>
       <use style="stroke:#000000;stroke-width:0.8;" x="322.568109" xlink:href="#ma1cf70900a" y="249.713917"/>
      </g>
     </g>
    </g>
    <g id="xtick_7">
     <g id="line2d_13">
      <path clip-path="url(#pb7ebd65f80)" d="M 373.274814 249.713917  L 373.274814 18.17325  " style="fill:none;stroke:#b0b0b0;stroke-linecap:square;stroke-width:0.8;"/>
     </g>
     <g id="line2d_14">
      <g>
       <use style="stroke:#000000;stroke-width:0.8;" x="373.274814" xlink:href="#ma1cf70900a" y="249.713917"/>
      </g>
     </g>
    </g>
    <g id="xtick_8">
     <g id="line2d_15">
      <path clip-path="url(#pb7ebd65f80)" d="M 423.98152 249.713917  L 423.98152 18.17325  " style="fill:none;stroke:#b0b0b0;stroke-linecap:square;stroke-width:0.8;"/>
     </g>
     <g id="line2d_16">
      <g>
       <use style="stroke:#000000;stroke-width:0.8;" x="423.98152" xlink:href="#ma1cf70900a" y="249.713917"/>
      </g>
     </g>
    </g>
   </g>
   <g id="matplotlib.axis_2">
    <g id="ytick_1">
     <g id="line2d_17">
      <path clip-path="url(#pb7ebd65f80)" d="M 50.779863 239.189341  L 452.383664 239.189341  " style="fill:none;stroke:#b0b0b0;stroke-linecap:square;stroke-width:0.8;"/>
     </g>
     <g id="line2d_18">
      <defs>
       <path d="M 0 0  L -3.5 0  " id="mc38b1858b6" style="stroke:#000000;stroke-width:0.8;"/>
      </defs>
      <g>
       <use style="stroke:#000000;stroke-width:0.8;" x="50.779863" xlink:href="#mc38b1858b6" y="239.189341"/>
      </g>
     </g>
     <g id="text_1">
      <!-- 0.0 -->
      <g transform="translate(27.876737 242.98856)scale(0.1 -0.1)">
       <defs>
        <path d="M 31.78125 66.40625  Q 24.171875 66.40625 20.328125 58.90625  Q 16.5 51.421875 16.5 36.375  Q 16.5 21.390625 20.328125 13.890625  Q 24.171875 6.390625 31.78125 6.390625  Q 39.453125 6.390625 43.28125 13.890625  Q 47.125 21.390625 47.125 36.375  Q 47.125 51.421875 43.28125 58.90625  Q 39.453125 66.40625 31.78125 66.40625  z M 31.78125 74.21875  Q 44.046875 74.21875 50.515625 64.515625  Q 56.984375 54.828125 56.984375 36.375  Q 56.984375 17.96875 50.515625 8.265625  Q 44.046875 -1.421875 31.78125 -1.421875  Q 19.53125 -1.421875 13.0625 8.265625  Q 6.59375 17.96875 6.59375 36.375  Q 6.59375 54.828125 13.0625 64.515625  Q 19.53125 74.21875 31.78125 74.21875  z " id="DejaVuSans-48"/>
        <path d="M 10.6875 12.40625  L 21 12.40625  L 21 0  L 10.6875 0  z " id="DejaVuSans-46"/>
       </defs>
       <use xlink:href="#DejaVuSans-48"/>
       <use x="63.623047" xlink:href="#DejaVuSans-46"/>
       <use x="95.410156" xlink:href="#DejaVuSans-48"/>
      </g>
     </g>
    </g>
    <g id="ytick_2">
     <g id="line2d_19">
      <path clip-path="url(#pb7ebd65f80)" d="M 50.779863 188.766103  L 452.383664 188.766103  " style="fill:none;stroke:#b0b0b0;stroke-linecap:square;stroke-width:0.8;"/>
     </g>
     <g id="line2d_20">
      <g>
       <use style="stroke:#000000;stroke-width:0.8;" x="50.779863" xlink:href="#mc38b1858b6" y="188.766103"/>
      </g>
     </g>
     <g id="text_2">
      <!-- 0.2 -->
      <g transform="translate(27.876737 192.565322)scale(0.1 -0.1)">
       <defs>
        <path d="M 19.1875 8.296875  L 53.609375 8.296875  L 53.609375 0  L 7.328125 0  L 7.328125 8.296875  Q 12.9375 14.109375 22.625 23.890625  Q 32.328125 33.6875 34.8125 36.53125  Q 39.546875 41.84375 41.421875 45.53125  Q 43.3125 49.21875 43.3125 52.78125  Q 43.3125 58.59375 39.234375 62.25  Q 35.15625 65.921875 28.609375 65.921875  Q 23.96875 65.921875 18.8125 64.3125  Q 13.671875 62.703125 7.8125 59.421875  L 7.8125 69.390625  Q 13.765625 71.78125 18.9375 73  Q 24.125 74.21875 28.421875 74.21875  Q 39.75 74.21875 46.484375 68.546875  Q 53.21875 62.890625 53.21875 53.421875  Q 53.21875 48.921875 51.53125 44.890625  Q 49.859375 40.875 45.40625 35.40625  Q 44.1875 33.984375 37.640625 27.21875  Q 31.109375 20.453125 19.1875 8.296875  z " id="DejaVuSans-50"/>
       </defs>
       <use xlink:href="#DejaVuSans-48"/>
       <use x="63.623047" xlink:href="#DejaVuSans-46"/>
       <use x="95.410156" xlink:href="#DejaVuSans-50"/>
      </g>
     </g>
    </g>
    <g id="ytick_3">
     <g id="line2d_21">
      <path clip-path="url(#pb7ebd65f80)" d="M 50.779863 138.342865  L 452.383664 138.342865  " style="fill:none;stroke:#b0b0b0;stroke-linecap:square;stroke-width:0.8;"/>
     </g>
     <g id="line2d_22">
      <g>
       <use style="stroke:#000000;stroke-width:0.8;" x="50.779863" xlink:href="#mc38b1858b6" y="138.342865"/>
      </g>
     </g>
     <g id="text_3">
      <!-- 0.4 -->
      <g transform="translate(27.876737 142.142084)scale(0.1 -0.1)">
       <defs>
        <path d="M 37.796875 64.3125  L 12.890625 25.390625  L 37.796875 25.390625  z M 35.203125 72.90625  L 47.609375 72.90625  L 47.609375 25.390625  L 58.015625 25.390625  L 58.015625 17.1875  L 47.609375 17.1875  L 47.609375 0  L 37.796875 0  L 37.796875 17.1875  L 4.890625 17.1875  L 4.890625 26.703125  z " id="DejaVuSans-52"/>
       </defs>
       <use xlink:href="#DejaVuSans-48"/>
       <use x="63.623047" xlink:href="#DejaVuSans-46"/>
       <use x="95.410156" xlink:href="#DejaVuSans-52"/>
      </g>
     </g>
    </g>
    <g id="ytick_4">
     <g id="line2d_23">
      <path clip-path="url(#pb7ebd65f80)" d="M 50.779863 87.919627  L 452.383664 87.919627  " style="fill:none;stroke:#b0b0b0;stroke-linecap:square;stroke-width:0.8;"/>
     </g>
     <g id="line2d_24">
      <g>
       <use style="stroke:#000000;stroke-width:0.8;" x="50.779863" xlink:href="#mc38b1858b6" y="87.919627"/>
      </g>
     </g>
     <g id="text_4">
      <!-- 0.6 -->
      <g transform="translate(27.876737 91.718846)scale(0.1 -0.1)">
       <defs>
        <path d="M 33.015625 40.375  Q 26.375 40.375 22.484375 35.828125  Q 18.609375 31.296875 18.609375 23.390625  Q 18.609375 15.53125 22.484375 10.953125  Q 26.375 6.390625 33.015625 6.390625  Q 39.65625 6.390625 43.53125 10.953125  Q 47.40625 15.53125 47.40625 23.390625  Q 47.40625 31.296875 43.53125 35.828125  Q 39.65625 40.375 33.015625 40.375  z M 52.59375 71.296875  L 52.59375 62.3125  Q 48.875 64.0625 45.09375 64.984375  Q 41.3125 65.921875 37.59375 65.921875  Q 27.828125 65.921875 22.671875 59.328125  Q 17.53125 52.734375 16.796875 39.40625  Q 19.671875 43.65625 24.015625 45.921875  Q 28.375 48.1875 33.59375 48.1875  Q 44.578125 48.1875 50.953125 41.515625  Q 57.328125 34.859375 57.328125 23.390625  Q 57.328125 12.15625 50.6875 5.359375  Q 44.046875 -1.421875 33.015625 -1.421875  Q 20.359375 -1.421875 13.671875 8.265625  Q 6.984375 17.96875 6.984375 36.375  Q 6.984375 53.65625 15.1875 63.9375  Q 23.390625 74.21875 37.203125 74.21875  Q 40.921875 74.21875 44.703125 73.484375  Q 48.484375 72.75 52.59375 71.296875  z " id="DejaVuSans-54"/>
       </defs>
       <use xlink:href="#DejaVuSans-48"/>
       <use x="63.623047" xlink:href="#DejaVuSans-46"/>
       <use x="95.410156" xlink:href="#DejaVuSans-54"/>
      </g>
     </g>
    </g>
    <g id="ytick_5">
     <g id="line2d_25">
      <path clip-path="url(#pb7ebd65f80)" d="M 50.779863 37.496389  L 452.383664 37.496389  " style="fill:none;stroke:#b0b0b0;stroke-linecap:square;stroke-width:0.8;"/>
     </g>
     <g id="line2d_26">
      <g>
       <use style="stroke:#000000;stroke-width:0.8;" x="50.779863" xlink:href="#mc38b1858b6" y="37.496389"/>
      </g>
     </g>
     <g id="text_5">
      <!-- 0.8 -->
      <g transform="translate(27.876737 41.295607)scale(0.1 -0.1)">
       <defs>
        <path d="M 31.78125 34.625  Q 24.75 34.625 20.71875 30.859375  Q 16.703125 27.09375 16.703125 20.515625  Q 16.703125 13.921875 20.71875 10.15625  Q 24.75 6.390625 31.78125 6.390625  Q 38.8125 6.390625 42.859375 10.171875  Q 46.921875 13.96875 46.921875 20.515625  Q 46.921875 27.09375 42.890625 30.859375  Q 38.875 34.625 31.78125 34.625  z M 21.921875 38.8125  Q 15.578125 40.375 12.03125 44.71875  Q 8.5 49.078125 8.5 55.328125  Q 8.5 64.0625 14.71875 69.140625  Q 20.953125 74.21875 31.78125 74.21875  Q 42.671875 74.21875 48.875 69.140625  Q 55.078125 64.0625 55.078125 55.328125  Q 55.078125 49.078125 51.53125 44.71875  Q 48 40.375 41.703125 38.8125  Q 48.828125 37.15625 52.796875 32.3125  Q 56.78125 27.484375 56.78125 20.515625  Q 56.78125 9.90625 50.3125 4.234375  Q 43.84375 -1.421875 31.78125 -1.421875  Q 19.734375 -1.421875 13.25 4.234375  Q 6.78125 9.90625 6.78125 20.515625  Q 6.78125 27.484375 10.78125 32.3125  Q 14.796875 37.15625 21.921875 38.8125  z M 18.3125 54.390625  Q 18.3125 48.734375 21.84375 45.5625  Q 25.390625 42.390625 31.78125 42.390625  Q 38.140625 42.390625 41.71875 45.5625  Q 45.3125 48.734375 45.3125 54.390625  Q 45.3125 60.0625 41.71875 63.234375  Q 38.140625 66.40625 31.78125 66.40625  Q 25.390625 66.40625 21.84375 63.234375  Q 18.3125 60.0625 18.3125 54.390625  z " id="DejaVuSans-56"/>
       </defs>
       <use xlink:href="#DejaVuSans-48"/>
       <use x="63.623047" xlink:href="#DejaVuSans-46"/>
       <use x="95.410156" xlink:href="#DejaVuSans-56"/>
      </g>
     </g>
    </g>
    <g id="text_6">
     <!-- Perte de masse [%] -->
     <g transform="translate(21.79705 182.836552)rotate(-90)scale(0.1 -0.1)">
      <defs>
       <path d="M 19.671875 64.796875  L 19.671875 37.40625  L 32.078125 37.40625  Q 38.96875 37.40625 42.71875 40.96875  Q 46.484375 44.53125 46.484375 51.125  Q 46.484375 57.671875 42.71875 61.234375  Q 38.96875 64.796875 32.078125 64.796875  z M 9.8125 72.90625  L 32.078125 72.90625  Q 44.34375 72.90625 50.609375 67.359375  Q 56.890625 61.8125 56.890625 51.125  Q 56.890625 40.328125 50.609375 34.8125  Q 44.34375 29.296875 32.078125 29.296875  L 19.671875 29.296875  L 19.671875 0  L 9.8125 0  z " id="DejaVuSans-80"/>
       <path d="M 56.203125 29.59375  L 56.203125 25.203125  L 14.890625 25.203125  Q 15.484375 15.921875 20.484375 11.0625  Q 25.484375 6.203125 34.421875 6.203125  Q 39.59375 6.203125 44.453125 7.46875  Q 49.3125 8.734375 54.109375 11.28125  L 54.109375 2.78125  Q 49.265625 0.734375 44.1875 -0.34375  Q 39.109375 -1.421875 33.890625 -1.421875  Q 20.796875 -1.421875 13.15625 6.1875  Q 5.515625 13.8125 5.515625 26.8125  Q 5.515625 40.234375 12.765625 48.109375  Q 20.015625 56 32.328125 56  Q 43.359375 56 49.78125 48.890625  Q 56.203125 41.796875 56.203125 29.59375  z M 47.21875 32.234375  Q 47.125 39.59375 43.09375 43.984375  Q 39.0625 48.390625 32.421875 48.390625  Q 24.90625 48.390625 20.390625 44.140625  Q 15.875 39.890625 15.1875 32.171875  z " id="DejaVuSans-101"/>
       <path d="M 41.109375 46.296875  Q 39.59375 47.171875 37.8125 47.578125  Q 36.03125 48 33.890625 48  Q 26.265625 48 22.1875 43.046875  Q 18.109375 38.09375 18.109375 28.8125  L 18.109375 0  L 9.078125 0  L 9.078125 54.6875  L 18.109375 54.6875  L 18.109375 46.1875  Q 20.953125 51.171875 25.484375 53.578125  Q 30.03125 56 36.53125 56  Q 37.453125 56 38.578125 55.875  Q 39.703125 55.765625 41.0625 55.515625  z " id="DejaVuSans-114"/>
       <path d="M 18.3125 70.21875  L 18.3125 54.6875  L 36.8125 54.6875  L 36.8125 47.703125  L 18.3125 47.703125  L 18.3125 18.015625  Q 18.3125 11.328125 20.140625 9.421875  Q 21.96875 7.515625 27.59375 7.515625  L 36.8125 7.515625  L 36.8125 0  L 27.59375 0  Q 17.1875 0 13.234375 3.875  Q 9.28125 7.765625 9.28125 18.015625  L 9.28125 47.703125  L 2.6875 47.703125  L 2.6875 54.6875  L 9.28125 54.6875  L 9.28125 70.21875  z " id="DejaVuSans-116"/>
       <path id="DejaVuSans-32"/>
       <path d="M 45.40625 46.390625  L 45.40625 75.984375  L 54.390625 75.984375  L 54.390625 0  L 45.40625 0  L 45.40625 8.203125  Q 42.578125 3.328125 38.25 0.953125  Q 33.9375 -1.421875 27.875 -1.421875  Q 17.96875 -1.421875 11.734375 6.484375  Q 5.515625 14.40625 5.515625 27.296875  Q 5.515625 40.1875 11.734375 48.09375  Q 17.96875 56 27.875 56  Q 33.9375 56 38.25 53.625  Q 42.578125 51.265625 45.40625 46.390625  z M 14.796875 27.296875  Q 14.796875 17.390625 18.875 11.75  Q 22.953125 6.109375 30.078125 6.109375  Q 37.203125 6.109375 41.296875 11.75  Q 45.40625 17.390625 45.40625 27.296875  Q 45.40625 37.203125 41.296875 42.84375  Q 37.203125 48.484375 30.078125 48.484375  Q 22.953125 48.484375 18.875 42.84375  Q 14.796875 37.203125 14.796875 27.296875  z " id="DejaVuSans-100"/>
       <path d="M 52 44.1875  Q 55.375 50.25 60.0625 53.125  Q 64.75 56 71.09375 56  Q 79.640625 56 84.28125 50.015625  Q 88.921875 44.046875 88.921875 33.015625  L 88.921875 0  L 79.890625 0  L 79.890625 32.71875  Q 79.890625 40.578125 77.09375 44.375  Q 74.3125 48.1875 68.609375 48.1875  Q 61.625 48.1875 57.5625 43.546875  Q 53.515625 38.921875 53.515625 30.90625  L 53.515625 0  L 44.484375 0  L 44.484375 32.71875  Q 44.484375 40.625 41.703125 44.40625  Q 38.921875 48.1875 33.109375 48.1875  Q 26.21875 48.1875 22.15625 43.53125  Q 18.109375 38.875 18.109375 30.90625  L 18.109375 0  L 9.078125 0  L 9.078125 54.6875  L 18.109375 54.6875  L 18.109375 46.1875  Q 21.1875 51.21875 25.484375 53.609375  Q 29.78125 56 35.6875 56  Q 41.65625 56 45.828125 52.96875  Q 50 49.953125 52 44.1875  z " id="DejaVuSans-109"/>
       <path d="M 34.28125 27.484375  Q 23.390625 27.484375 19.1875 25  Q 14.984375 22.515625 14.984375 16.5  Q 14.984375 11.71875 18.140625 8.90625  Q 21.296875 6.109375 26.703125 6.109375  Q 34.1875 6.109375 38.703125 11.40625  Q 43.21875 16.703125 43.21875 25.484375  L 43.21875 27.484375  z M 52.203125 31.203125  L 52.203125 0  L 43.21875 0  L 43.21875 8.296875  Q 40.140625 3.328125 35.546875 0.953125  Q 30.953125 -1.421875 24.3125 -1.421875  Q 15.921875 -1.421875 10.953125 3.296875  Q 6 8.015625 6 15.921875  Q 6 25.140625 12.171875 29.828125  Q 18.359375 34.515625 30.609375 34.515625  L 43.21875 34.515625  L 43.21875 35.40625  Q 43.21875 41.609375 39.140625 45  Q 35.0625 48.390625 27.6875 48.390625  Q 23 48.390625 18.546875 47.265625  Q 14.109375 46.140625 10.015625 43.890625  L 10.015625 52.203125  Q 14.9375 54.109375 19.578125 55.046875  Q 24.21875 56 28.609375 56  Q 40.484375 56 46.34375 49.84375  Q 52.203125 43.703125 52.203125 31.203125  z " id="DejaVuSans-97"/>
       <path d="M 44.28125 53.078125  L 44.28125 44.578125  Q 40.484375 46.53125 36.375 47.5  Q 32.28125 48.484375 27.875 48.484375  Q 21.1875 48.484375 17.84375 46.4375  Q 14.5 44.390625 14.5 40.28125  Q 14.5 37.15625 16.890625 35.375  Q 19.28125 33.59375 26.515625 31.984375  L 29.59375 31.296875  Q 39.15625 29.25 43.1875 25.515625  Q 47.21875 21.78125 47.21875 15.09375  Q 47.21875 7.46875 41.1875 3.015625  Q 35.15625 -1.421875 24.609375 -1.421875  Q 20.21875 -1.421875 15.453125 -0.5625  Q 10.6875 0.296875 5.421875 2  L 5.421875 11.28125  Q 10.40625 8.6875 15.234375 7.390625  Q 20.0625 6.109375 24.8125 6.109375  Q 31.15625 6.109375 34.5625 8.28125  Q 37.984375 10.453125 37.984375 14.40625  Q 37.984375 18.0625 35.515625 20.015625  Q 33.0625 21.96875 24.703125 23.78125  L 21.578125 24.515625  Q 13.234375 26.265625 9.515625 29.90625  Q 5.8125 33.546875 5.8125 39.890625  Q 5.8125 47.609375 11.28125 51.796875  Q 16.75 56 26.8125 56  Q 31.78125 56 36.171875 55.265625  Q 40.578125 54.546875 44.28125 53.078125  z " id="DejaVuSans-115"/>
       <path d="M 8.59375 75.984375  L 29.296875 75.984375  L 29.296875 69  L 17.578125 69  L 17.578125 -6.203125  L 29.296875 -6.203125  L 29.296875 -13.1875  L 8.59375 -13.1875  z " id="DejaVuSans-91"/>
       <path d="M 72.703125 32.078125  Q 68.453125 32.078125 66.03125 28.46875  Q 63.625 24.859375 63.625 18.40625  Q 63.625 12.0625 66.03125 8.421875  Q 68.453125 4.78125 72.703125 4.78125  Q 76.859375 4.78125 79.265625 8.421875  Q 81.6875 12.0625 81.6875 18.40625  Q 81.6875 24.8125 79.265625 28.4375  Q 76.859375 32.078125 72.703125 32.078125  z M 72.703125 38.28125  Q 80.421875 38.28125 84.953125 32.90625  Q 89.5 27.546875 89.5 18.40625  Q 89.5 9.28125 84.9375 3.921875  Q 80.375 -1.421875 72.703125 -1.421875  Q 64.890625 -1.421875 60.34375 3.921875  Q 55.8125 9.28125 55.8125 18.40625  Q 55.8125 27.59375 60.375 32.9375  Q 64.9375 38.28125 72.703125 38.28125  z M 22.3125 68.015625  Q 18.109375 68.015625 15.6875 64.375  Q 13.28125 60.75 13.28125 54.390625  Q 13.28125 47.953125 15.671875 44.328125  Q 18.0625 40.71875 22.3125 40.71875  Q 26.5625 40.71875 28.96875 44.328125  Q 31.390625 47.953125 31.390625 54.390625  Q 31.390625 60.6875 28.953125 64.34375  Q 26.515625 68.015625 22.3125 68.015625  z M 66.40625 74.21875  L 74.21875 74.21875  L 28.609375 -1.421875  L 20.796875 -1.421875  z M 22.3125 74.21875  Q 30.03125 74.21875 34.609375 68.875  Q 39.203125 63.53125 39.203125 54.390625  Q 39.203125 45.171875 34.640625 39.84375  Q 30.078125 34.515625 22.3125 34.515625  Q 14.546875 34.515625 10.03125 39.859375  Q 5.515625 45.21875 5.515625 54.390625  Q 5.515625 63.484375 10.046875 68.84375  Q 14.59375 74.21875 22.3125 74.21875  z " id="DejaVuSans-37"/>
       <path d="M 30.421875 75.984375  L 30.421875 -13.1875  L 9.71875 -13.1875  L 9.71875 -6.203125  L 21.390625 -6.203125  L 21.390625 69  L 9.71875 69  L 9.71875 75.984375  z " id="DejaVuSans-93"/>
      </defs>
      <use xlink:href="#DejaVuSans-80"/>
      <use x="56.677734" xlink:href="#DejaVuSans-101"/>
      <use x="118.201172" xlink:href="#DejaVuSans-114"/>
      <use x="159.314453" xlink:href="#DejaVuSans-116"/>
      <use x="198.523438" xlink:href="#DejaVuSans-101"/>
      <use x="260.046875" xlink:href="#DejaVuSans-32"/>
      <use x="291.833984" xlink:href="#DejaVuSans-100"/>
      <use x="355.310547" xlink:href="#DejaVuSans-101"/>
      <use x="416.833984" xlink:href="#DejaVuSans-32"/>
      <use x="448.621094" xlink:href="#DejaVuSans-109"/>
      <use x="546.033203" xlink:href="#DejaVuSans-97"/>
      <use x="607.3125" xlink:href="#DejaVuSans-115"/>
      <use x="659.412109" xlink:href="#DejaVuSans-115"/>
      <use x="711.511719" xlink:href="#DejaVuSans-101"/>
      <use x="773.035156" xlink:href="#DejaVuSans-32"/>
      <use x="804.822266" xlink:href="#DejaVuSans-91"/>
      <use x="843.835938" xlink:href="#DejaVuSans-37"/>
      <use x="938.855469" xlink:href="#DejaVuSans-93"/>
     </g>
    </g>
   </g>
   <g id="line2d_27">
    <path clip-path="url(#pb7ebd65f80)" d="M 69.034581 239.189341  L 71.063356 227.739426  L 73.091624 221.477437  L 75.1204 216.411102  L 77.149175 212.07432  L 79.177443 208.183376  L 81.206218 204.616676  L 85.263262 198.51681  L 91.349081 190.674125  L 93.377349 188.343611  L 97.434899 184.189217  L 101.491943 180.379334  L 105.548987 176.954492  L 111.634805 172.171872  L 119.748892 166.457047  L 127.863486 161.512305  L 138.006349 155.817746  L 142.063392 153.750681  L 144.092168 146.921263  L 146.120436 137.41682  L 148.149211 129.351216  L 150.177479 122.521798  L 152.206255 116.746177  L 154.23503 111.740638  L 156.263298 107.383591  L 158.292073 103.614238  L 160.320342 100.229927  L 162.349117 97.271188  L 164.377892 94.636694  L 166.40616 92.326446  L 168.434936 90.198585  L 172.491979 86.794009  L 174.520755 85.294374  L 178.577798 82.700411  L 184.663617 79.782202  L 188.72066 78.14071  L 198.863523 75.344094  L 202.921073 74.472684  L 213.063936 72.993315  L 215.092204 72.40562  L 217.120979 70.379086  L 219.149247 68.757859  L 221.178023 67.623  L 223.206798 66.71106  L 227.263841 65.49514  L 231.320885 64.5832  L 237.406704 63.549668  L 247.549566 62.272951  L 267.835291 60.550398  L 273.921109 60.185622  L 277.97866 59.962703  L 282.035704 59.739784  L 286.092747 59.597927  L 288.121522 58.84811  L 290.149791 57.733516  L 294.207341 55.970432  L 296.235609 55.24088  L 300.29316 54.166817  L 304.350204 53.214346  L 316.521841 51.086486  L 326.664703 49.728708  L 342.893385 48.046685  L 351.007979 47.296868  L 355.065022 47.033418  L 357.093797 46.891561  L 359.122066 46.587581  L 361.150841 45.493253  L 363.179109 44.257067  L 367.236153 42.291329  L 371.293703 40.629572  L 373.321972 39.859489  L 381.436566 37.387118  L 389.55116 35.360584  L 397.665247 33.719092  L 413.893928 30.90221  L 430.122609 28.733819  L 432.151384 29.139126  L 432.151384 29.139126  " style="fill:none;stroke:#0000ff;stroke-linecap:square;"/>
   </g>
   <g id="line2d_28">
    <path clip-path="url(#pb7ebd65f80)" d="M 69.034581 239.189341  L 71.62113 231.281014  L 74.207679 224.086405  L 76.793721 217.542325  L 79.38027 211.587618  L 82.017526 206.069154  L 84.654781 201.058025  L 87.342744 196.424328  L 90.030706 192.224421  L 92.768868 188.3501  L 95.558244 184.782645  L 98.398327 181.505557  L 101.339823 178.451829  L 104.331519 175.665234  L 107.425135 173.087033  L 110.620164 170.713445  L 113.916607 168.538513  L 117.365677 166.526811  L 121.017067 164.656245  L 124.871284 162.934818  L 128.928327 161.366692  L 133.289611 159.921248  L 138.006349 158.59684  L 142.012686 157.638077  L 142.164806 153.27384  L 144.193581 144.300439  L 146.221849 136.324216  L 148.250624 129.230809  L 150.2794 122.924179  L 152.307668 117.318379  L 154.38715 112.215786  L 156.466125 107.693503  L 158.596314 103.591705  L 160.726502 99.966233  L 162.906891 96.690925  L 165.138493 93.740863  L 167.420295 91.093565  L 169.75331 88.726579  L 172.187739 86.574712  L 174.723581 84.633699  L 177.360837 82.896225  L 180.149706 81.325399  L 183.141909 79.900015  L 186.336938 78.627579  L 189.786008 77.494388  L 193.589518 76.481059  L 197.849389 75.582044  L 202.667033 74.800003  L 208.195078 74.13438  L 214.737257 73.578171  L 215.041497 73.557085  L 215.193617 72.330482  L 217.780166 70.560717  L 220.468129 68.990471  L 223.358918 67.561619  L 226.452534 66.283454  L 229.799684 65.143127  L 233.50178 64.121791  L 237.609531 63.224712  L 242.224855 62.448318  L 247.549566 61.78261  L 253.838212 61.226751  L 261.546645 60.777534  L 271.435974 60.435596  L 285.180026 60.198455  L 288.070816 60.168968  L 288.222936 58.805137  L 292.533513 57.10212  L 297.09813 55.538072  L 302.017188 54.090407  L 307.2917 52.772259  L 313.022571 51.571752  L 319.311217 50.485348  L 326.25905 49.514396  L 334.068897 48.65269  L 342.944091 47.903072  L 353.239074 47.263094  L 361.100134 46.898668  L 361.252254 45.442328  L 365.765658 43.302648  L 370.533103 41.291507  L 375.553574 39.418911  L 380.828085 37.690466  L 386.457544 36.082045  L 392.441949 34.604625  L 398.882715 33.244345  L 405.881254 31.995969  L 413.538981 30.859686  L 421.957815 29.839044  L 431.340077 28.929379  L 434.128946 28.697826  L 434.128946 28.697826  " style="fill:none;stroke:#ff0000;stroke-dasharray:3.7,1.6;stroke-dashoffset:0;"/>
   </g>
   <g id="line2d_29">
    <path clip-path="url(#pb7ebd65f80)" d="M 69.034581 249.713917  L 69.034581 18.17325  " style="fill:none;stroke:#00ff00;stroke-linecap:square;stroke-width:1.5;"/>
   </g>
   <g id="line2d_30">
    <path clip-path="url(#pb7ebd65f80)" d="M 142.052237 249.713917  L 142.052237 18.17325  " style="fill:none;stroke:#00ff00;stroke-linecap:square;stroke-width:1.5;"/>
   </g>
   <g id="line2d_31">
    <path clip-path="url(#pb7ebd65f80)" d="M 215.069893 249.713917  L 215.069893 18.17325  " style="fill:none;stroke:#00ff00;stroke-linecap:square;stroke-width:1.5;"/>
   </g>
   <g id="line2d_32">
    <path clip-path="url(#pb7ebd65f80)" d="M 288.087549 249.713917  L 288.087549 18.17325  " style="fill:none;stroke:#00ff00;stroke-linecap:square;stroke-width:1.5;"/>
   </g>
   <g id="line2d_33">
    <path clip-path="url(#pb7ebd65f80)" d="M 361.105205 249.713917  L 361.105205 18.17325  " style="fill:none;stroke:#00ff00;stroke-linecap:square;stroke-width:1.5;"/>
   </g>
   <g id="line2d_34">
    <path clip-path="url(#pb7ebd65f80)" d="M 434.122861 249.713917  L 434.122861 18.17325  " style="fill:none;stroke:#00ff00;stroke-linecap:square;stroke-width:1.5;"/>
   </g>
   <g id="patch_3">
    <path d="M 50.779863 249.713917  L 50.779863 18.17325  " style="fill:none;stroke:#000000;stroke-linecap:square;stroke-linejoin:miter;stroke-width:0.8;"/>
   </g>
   <g id="patch_4">
    <path d="M 452.383664 249.713917  L 452.383664 18.17325  " style="fill:none;stroke:#000000;stroke-linecap:square;stroke-linejoin:miter;stroke-width:0.8;"/>
   </g>
   <g id="patch_5">
    <path d="M 50.779863 249.713917  L 452.383664 249.713917  " style="fill:none;stroke:#000000;stroke-linecap:square;stroke-linejoin:miter;stroke-width:0.8;"/>
   </g>
   <g id="patch_6">
    <path d="M 50.779863 18.17325  L 452.383664 18.17325  " style="fill:none;stroke:#000000;stroke-linecap:square;stroke-linejoin:miter;stroke-width:0.8;"/>
   </g>
   <g id="text_7">
    <!-- Palier 0 -->
    <g style="fill:#00ff00;" transform="translate(81.20419 213.977722)scale(0.12 -0.12)">
     <defs>
      <path d="M 9.421875 75.984375  L 18.40625 75.984375  L 18.40625 0  L 9.421875 0  z " id="DejaVuSans-108"/>
      <path d="M 9.421875 54.6875  L 18.40625 54.6875  L 18.40625 0  L 9.421875 0  z M 9.421875 75.984375  L 18.40625 75.984375  L 18.40625 64.59375  L 9.421875 64.59375  z " id="DejaVuSans-105"/>
     </defs>
     <use xlink:href="#DejaVuSans-80"/>
     <use x="55.802734" xlink:href="#DejaVuSans-97"/>
     <use x="117.082031" xlink:href="#DejaVuSans-108"/>
     <use x="144.865234" xlink:href="#DejaVuSans-105"/>
     <use x="172.648438" xlink:href="#DejaVuSans-101"/>
     <use x="234.171875" xlink:href="#DejaVuSans-114"/>
     <use x="275.285156" xlink:href="#DejaVuSans-32"/>
     <use x="307.072266" xlink:href="#DejaVuSans-48"/>
    </g>
   </g>
   <g id="text_8">
    <!-- Palier 1 -->
    <g style="fill:#00ff00;" transform="translate(154.221846 213.977722)scale(0.12 -0.12)">
     <defs>
      <path d="M 12.40625 8.296875  L 28.515625 8.296875  L 28.515625 63.921875  L 10.984375 60.40625  L 10.984375 69.390625  L 28.421875 72.90625  L 38.28125 72.90625  L 38.28125 8.296875  L 54.390625 8.296875  L 54.390625 0  L 12.40625 0  z " id="DejaVuSans-49"/>
     </defs>
     <use xlink:href="#DejaVuSans-80"/>
     <use x="55.802734" xlink:href="#DejaVuSans-97"/>
     <use x="117.082031" xlink:href="#DejaVuSans-108"/>
     <use x="144.865234" xlink:href="#DejaVuSans-105"/>
     <use x="172.648438" xlink:href="#DejaVuSans-101"/>
     <use x="234.171875" xlink:href="#DejaVuSans-114"/>
     <use x="275.285156" xlink:href="#DejaVuSans-32"/>
     <use x="307.072266" xlink:href="#DejaVuSans-49"/>
    </g>
   </g>
   <g id="text_9">
    <!-- Palier 2 -->
    <g style="fill:#00ff00;" transform="translate(227.239502 213.977722)scale(0.12 -0.12)">
     <use xlink:href="#DejaVuSans-80"/>
     <use x="55.802734" xlink:href="#DejaVuSans-97"/>
     <use x="117.082031" xlink:href="#DejaVuSans-108"/>
     <use x="144.865234" xlink:href="#DejaVuSans-105"/>
     <use x="172.648438" xlink:href="#DejaVuSans-101"/>
     <use x="234.171875" xlink:href="#DejaVuSans-114"/>
     <use x="275.285156" xlink:href="#DejaVuSans-32"/>
     <use x="307.072266" xlink:href="#DejaVuSans-50"/>
    </g>
   </g>
   <g id="text_10">
    <!-- Palier 3 -->
    <g style="fill:#00ff00;" transform="translate(300.257158 213.977722)scale(0.12 -0.12)">
     <defs>
      <path d="M 40.578125 39.3125  Q 47.65625 37.796875 51.625 33  Q 55.609375 28.21875 55.609375 21.1875  Q 55.609375 10.40625 48.1875 4.484375  Q 40.765625 -1.421875 27.09375 -1.421875  Q 22.515625 -1.421875 17.65625 -0.515625  Q 12.796875 0.390625 7.625 2.203125  L 7.625 11.71875  Q 11.71875 9.328125 16.59375 8.109375  Q 21.484375 6.890625 26.8125 6.890625  Q 36.078125 6.890625 40.9375 10.546875  Q 45.796875 14.203125 45.796875 21.1875  Q 45.796875 27.640625 41.28125 31.265625  Q 36.765625 34.90625 28.71875 34.90625  L 20.21875 34.90625  L 20.21875 43.015625  L 29.109375 43.015625  Q 36.375 43.015625 40.234375 45.921875  Q 44.09375 48.828125 44.09375 54.296875  Q 44.09375 59.90625 40.109375 62.90625  Q 36.140625 65.921875 28.71875 65.921875  Q 24.65625 65.921875 20.015625 65.03125  Q 15.375 64.15625 9.8125 62.3125  L 9.8125 71.09375  Q 15.4375 72.65625 20.34375 73.4375  Q 25.25 74.21875 29.59375 74.21875  Q 40.828125 74.21875 47.359375 69.109375  Q 53.90625 64.015625 53.90625 55.328125  Q 53.90625 49.265625 50.4375 45.09375  Q 46.96875 40.921875 40.578125 39.3125  z " id="DejaVuSans-51"/>
     </defs>
     <use xlink:href="#DejaVuSans-80"/>
     <use x="55.802734" xlink:href="#DejaVuSans-97"/>
     <use x="117.082031" xlink:href="#DejaVuSans-108"/>
     <use x="144.865234" xlink:href="#DejaVuSans-105"/>
     <use x="172.648438" xlink:href="#DejaVuSans-101"/>
     <use x="234.171875" xlink:href="#DejaVuSans-114"/>
     <use x="275.285156" xlink:href="#DejaVuSans-32"/>
     <use x="307.072266" xlink:href="#DejaVuSans-51"/>
    </g>
   </g>
   <g id="text_11">
    <!-- Palier 4 -->
    <g style="fill:#00ff00;" transform="translate(373.274814 213.977722)scale(0.12 -0.12)">
     <use xlink:href="#DejaVuSans-80"/>
     <use x="55.802734" xlink:href="#DejaVuSans-97"/>
     <use x="117.082031" xlink:href="#DejaVuSans-108"/>
     <use x="144.865234" xlink:href="#DejaVuSans-105"/>
     <use x="172.648438" xlink:href="#DejaVuSans-101"/>
     <use x="234.171875" xlink:href="#DejaVuSans-114"/>
     <use x="275.285156" xlink:href="#DejaVuSans-32"/>
     <use x="307.072266" xlink:href="#DejaVuSans-52"/>
    </g>
   </g>
   <g id="legend_1">
    <g id="patch_7">
     <path d="M 57.779863 70.607625  L 170.256425 70.607625  Q 172.256425 70.607625 172.256425 68.607625  L 172.256425 25.17325  Q 172.256425 23.17325 170.256425 23.17325  L 57.779863 23.17325  Q 55.779863 23.17325 55.779863 25.17325  L 55.779863 68.607625  Q 55.779863 70.607625 57.779863 70.607625  z " style="fill:#ffffff;opacity:0.8;stroke:#cccccc;stroke-linejoin:miter;"/>
    </g>
    <g id="line2d_35">
     <path d="M 59.779863 31.271687  L 79.779863 31.271687  " style="fill:none;stroke:#0000ff;stroke-linecap:square;"/>
    </g>
    <g id="line2d_36"/>
    <g id="text_12">
     <!-- data -->
     <g transform="translate(87.779863 34.771687)scale(0.1 -0.1)">
      <use xlink:href="#DejaVuSans-100"/>
      <use x="63.476562" xlink:href="#DejaVuSans-97"/>
      <use x="124.755859" xlink:href="#DejaVuSans-116"/>
      <use x="163.964844" xlink:href="#DejaVuSans-97"/>
     </g>
    </g>
    <g id="line2d_37">
     <path d="M 59.779863 45.949813  L 79.779863 45.949813  " style="fill:none;stroke:#ff0000;stroke-dasharray:3.7,1.6;stroke-dashoffset:0;"/>
    </g>
    <g id="line2d_38"/>
    <g id="text_13">
     <!-- prediction CNES -->
     <g transform="translate(87.779863 49.449813)scale(0.1 -0.1)">
      <defs>
       <path d="M 18.109375 8.203125  L 18.109375 -20.796875  L 9.078125 -20.796875  L 9.078125 54.6875  L 18.109375 54.6875  L 18.109375 46.390625  Q 20.953125 51.265625 25.265625 53.625  Q 29.59375 56 35.59375 56  Q 45.5625 56 51.78125 48.09375  Q 58.015625 40.1875 58.015625 27.296875  Q 58.015625 14.40625 51.78125 6.484375  Q 45.5625 -1.421875 35.59375 -1.421875  Q 29.59375 -1.421875 25.265625 0.953125  Q 20.953125 3.328125 18.109375 8.203125  z M 48.6875 27.296875  Q 48.6875 37.203125 44.609375 42.84375  Q 40.53125 48.484375 33.40625 48.484375  Q 26.265625 48.484375 22.1875 42.84375  Q 18.109375 37.203125 18.109375 27.296875  Q 18.109375 17.390625 22.1875 11.75  Q 26.265625 6.109375 33.40625 6.109375  Q 40.53125 6.109375 44.609375 11.75  Q 48.6875 17.390625 48.6875 27.296875  z " id="DejaVuSans-112"/>
       <path d="M 48.78125 52.59375  L 48.78125 44.1875  Q 44.96875 46.296875 41.140625 47.34375  Q 37.3125 48.390625 33.40625 48.390625  Q 24.65625 48.390625 19.8125 42.84375  Q 14.984375 37.3125 14.984375 27.296875  Q 14.984375 17.28125 19.8125 11.734375  Q 24.65625 6.203125 33.40625 6.203125  Q 37.3125 6.203125 41.140625 7.25  Q 44.96875 8.296875 48.78125 10.40625  L 48.78125 2.09375  Q 45.015625 0.34375 40.984375 -0.53125  Q 36.96875 -1.421875 32.421875 -1.421875  Q 20.0625 -1.421875 12.78125 6.34375  Q 5.515625 14.109375 5.515625 27.296875  Q 5.515625 40.671875 12.859375 48.328125  Q 20.21875 56 33.015625 56  Q 37.15625 56 41.109375 55.140625  Q 45.0625 54.296875 48.78125 52.59375  z " id="DejaVuSans-99"/>
       <path d="M 30.609375 48.390625  Q 23.390625 48.390625 19.1875 42.75  Q 14.984375 37.109375 14.984375 27.296875  Q 14.984375 17.484375 19.15625 11.84375  Q 23.34375 6.203125 30.609375 6.203125  Q 37.796875 6.203125 41.984375 11.859375  Q 46.1875 17.53125 46.1875 27.296875  Q 46.1875 37.015625 41.984375 42.703125  Q 37.796875 48.390625 30.609375 48.390625  z M 30.609375 56  Q 42.328125 56 49.015625 48.375  Q 55.71875 40.765625 55.71875 27.296875  Q 55.71875 13.875 49.015625 6.21875  Q 42.328125 -1.421875 30.609375 -1.421875  Q 18.84375 -1.421875 12.171875 6.21875  Q 5.515625 13.875 5.515625 27.296875  Q 5.515625 40.765625 12.171875 48.375  Q 18.84375 56 30.609375 56  z " id="DejaVuSans-111"/>
       <path d="M 54.890625 33.015625  L 54.890625 0  L 45.90625 0  L 45.90625 32.71875  Q 45.90625 40.484375 42.875 44.328125  Q 39.84375 48.1875 33.796875 48.1875  Q 26.515625 48.1875 22.3125 43.546875  Q 18.109375 38.921875 18.109375 30.90625  L 18.109375 0  L 9.078125 0  L 9.078125 54.6875  L 18.109375 54.6875  L 18.109375 46.1875  Q 21.34375 51.125 25.703125 53.5625  Q 30.078125 56 35.796875 56  Q 45.21875 56 50.046875 50.171875  Q 54.890625 44.34375 54.890625 33.015625  z " id="DejaVuSans-110"/>
       <path d="M 64.40625 67.28125  L 64.40625 56.890625  Q 59.421875 61.53125 53.78125 63.8125  Q 48.140625 66.109375 41.796875 66.109375  Q 29.296875 66.109375 22.65625 58.46875  Q 16.015625 50.828125 16.015625 36.375  Q 16.015625 21.96875 22.65625 14.328125  Q 29.296875 6.6875 41.796875 6.6875  Q 48.140625 6.6875 53.78125 8.984375  Q 59.421875 11.28125 64.40625 15.921875  L 64.40625 5.609375  Q 59.234375 2.09375 53.4375 0.328125  Q 47.65625 -1.421875 41.21875 -1.421875  Q 24.65625 -1.421875 15.125 8.703125  Q 5.609375 18.84375 5.609375 36.375  Q 5.609375 53.953125 15.125 64.078125  Q 24.65625 74.21875 41.21875 74.21875  Q 47.75 74.21875 53.53125 72.484375  Q 59.328125 70.75 64.40625 67.28125  z " id="DejaVuSans-67"/>
       <path d="M 9.8125 72.90625  L 23.09375 72.90625  L 55.421875 11.921875  L 55.421875 72.90625  L 64.984375 72.90625  L 64.984375 0  L 51.703125 0  L 19.390625 60.984375  L 19.390625 0  L 9.8125 0  z " id="DejaVuSans-78"/>
       <path d="M 9.8125 72.90625  L 55.90625 72.90625  L 55.90625 64.59375  L 19.671875 64.59375  L 19.671875 43.015625  L 54.390625 43.015625  L 54.390625 34.71875  L 19.671875 34.71875  L 19.671875 8.296875  L 56.78125 8.296875  L 56.78125 0  L 9.8125 0  z " id="DejaVuSans-69"/>
       <path d="M 53.515625 70.515625  L 53.515625 60.890625  Q 47.90625 63.578125 42.921875 64.890625  Q 37.9375 66.21875 33.296875 66.21875  Q 25.25 66.21875 20.875 63.09375  Q 16.5 59.96875 16.5 54.203125  Q 16.5 49.359375 19.40625 46.890625  Q 22.3125 44.4375 30.421875 42.921875  L 36.375 41.703125  Q 47.40625 39.59375 52.65625 34.296875  Q 57.90625 29 57.90625 20.125  Q 57.90625 9.515625 50.796875 4.046875  Q 43.703125 -1.421875 29.984375 -1.421875  Q 24.8125 -1.421875 18.96875 -0.25  Q 13.140625 0.921875 6.890625 3.21875  L 6.890625 13.375  Q 12.890625 10.015625 18.65625 8.296875  Q 24.421875 6.59375 29.984375 6.59375  Q 38.421875 6.59375 43.015625 9.90625  Q 47.609375 13.234375 47.609375 19.390625  Q 47.609375 24.75 44.3125 27.78125  Q 41.015625 30.8125 33.5 32.328125  L 27.484375 33.5  Q 16.453125 35.6875 11.515625 40.375  Q 6.59375 45.0625 6.59375 53.421875  Q 6.59375 63.09375 13.40625 68.65625  Q 20.21875 74.21875 32.171875 74.21875  Q 37.3125 74.21875 42.625 73.28125  Q 47.953125 72.359375 53.515625 70.515625  z " id="DejaVuSans-83"/>
      </defs>
      <use xlink:href="#DejaVuSans-112"/>
      <use x="63.476562" xlink:href="#DejaVuSans-114"/>
      <use x="102.339844" xlink:href="#DejaVuSans-101"/>
      <use x="163.863281" xlink:href="#DejaVuSans-100"/>
      <use x="227.339844" xlink:href="#DejaVuSans-105"/>
      <use x="255.123047" xlink:href="#DejaVuSans-99"/>
      <use x="310.103516" xlink:href="#DejaVuSans-116"/>
      <use x="349.3125" xlink:href="#DejaVuSans-105"/>
      <use x="377.095703" xlink:href="#DejaVuSans-111"/>
      <use x="438.277344" xlink:href="#DejaVuSans-110"/>
      <use x="501.65625" xlink:href="#DejaVuSans-32"/>
      <use x="533.443359" xlink:href="#DejaVuSans-67"/>
      <use x="603.267578" xlink:href="#DejaVuSans-78"/>
      <use x="678.072266" xlink:href="#DejaVuSans-69"/>
      <use x="741.255859" xlink:href="#DejaVuSans-83"/>
     </g>
    </g>
    <g id="line2d_39">
     <path d="M 59.779863 61.027938  L 79.779863 61.027938  " style="fill:none;stroke:#ffa500;stroke-linecap:square;"/>
    </g>
    <g id="line2d_40"/>
    <g id="text_14">
     <!-- Température -->
     <g transform="translate(87.779863 64.527938)scale(0.1 -0.1)">
      <defs>
       <path d="M -0.296875 72.90625  L 61.375 72.90625  L 61.375 64.59375  L 35.5 64.59375  L 35.5 0  L 25.59375 0  L 25.59375 64.59375  L -0.296875 64.59375  z " id="DejaVuSans-84"/>
       <path d="M 56.203125 29.59375  L 56.203125 25.203125  L 14.890625 25.203125  Q 15.484375 15.921875 20.484375 11.0625  Q 25.484375 6.203125 34.421875 6.203125  Q 39.59375 6.203125 44.453125 7.46875  Q 49.3125 8.734375 54.109375 11.28125  L 54.109375 2.78125  Q 49.265625 0.734375 44.1875 -0.34375  Q 39.109375 -1.421875 33.890625 -1.421875  Q 20.796875 -1.421875 13.15625 6.1875  Q 5.515625 13.8125 5.515625 26.8125  Q 5.515625 40.234375 12.765625 48.109375  Q 20.015625 56 32.328125 56  Q 43.359375 56 49.78125 48.890625  Q 56.203125 41.796875 56.203125 29.59375  z M 47.21875 32.234375  Q 47.125 39.59375 43.09375 43.984375  Q 39.0625 48.390625 32.421875 48.390625  Q 24.90625 48.390625 20.390625 44.140625  Q 15.875 39.890625 15.1875 32.171875  z M 38.578125 79.984375  L 48.296875 79.984375  L 32.375 61.625  L 24.90625 61.625  z " id="DejaVuSans-233"/>
       <path d="M 8.5 21.578125  L 8.5 54.6875  L 17.484375 54.6875  L 17.484375 21.921875  Q 17.484375 14.15625 20.5 10.265625  Q 23.53125 6.390625 29.59375 6.390625  Q 36.859375 6.390625 41.078125 11.03125  Q 45.3125 15.671875 45.3125 23.6875  L 45.3125 54.6875  L 54.296875 54.6875  L 54.296875 0  L 45.3125 0  L 45.3125 8.40625  Q 42.046875 3.421875 37.71875 1  Q 33.40625 -1.421875 27.6875 -1.421875  Q 18.265625 -1.421875 13.375 4.4375  Q 8.5 10.296875 8.5 21.578125  z M 31.109375 56  z " id="DejaVuSans-117"/>
      </defs>
      <use xlink:href="#DejaVuSans-84"/>
      <use x="44.083984" xlink:href="#DejaVuSans-101"/>
      <use x="105.607422" xlink:href="#DejaVuSans-109"/>
      <use x="203.019531" xlink:href="#DejaVuSans-112"/>
      <use x="266.496094" xlink:href="#DejaVuSans-233"/>
      <use x="328.019531" xlink:href="#DejaVuSans-114"/>
      <use x="369.132812" xlink:href="#DejaVuSans-97"/>
      <use x="430.412109" xlink:href="#DejaVuSans-116"/>
      <use x="469.621094" xlink:href="#DejaVuSans-117"/>
      <use x="533" xlink:href="#DejaVuSans-114"/>
      <use x="571.863281" xlink:href="#DejaVuSans-101"/>
     </g>
    </g>
   </g>
  </g>
  <g id="axes_2">
   <g id="patch_8">
    <path d="M 50.779863 391.19275  L 452.383664 391.19275  L 452.383664 275.422417  L 50.779863 275.422417  z " style="fill:#ffffff;"/>
   </g>
   <g id="matplotlib.axis_3">
    <g id="xtick_9">
     <g id="line2d_41">
      <path clip-path="url(#p6ffc33c595)" d="M 69.034581 391.19275  L 69.034581 275.422417  " style="fill:none;stroke:#b0b0b0;stroke-linecap:square;stroke-width:0.8;"/>
     </g>
     <g id="line2d_42">
      <g>
       <use style="stroke:#000000;stroke-width:0.8;" x="69.034581" xlink:href="#ma1cf70900a" y="391.19275"/>
      </g>
     </g>
     <g id="text_15">
      <!-- 0 -->
      <g transform="translate(65.853331 405.791188)scale(0.1 -0.1)">
       <use xlink:href="#DejaVuSans-48"/>
      </g>
     </g>
    </g>
    <g id="xtick_10">
     <g id="line2d_43">
      <path clip-path="url(#p6ffc33c595)" d="M 119.741286 391.19275  L 119.741286 275.422417  " style="fill:none;stroke:#b0b0b0;stroke-linecap:square;stroke-width:0.8;"/>
     </g>
     <g id="line2d_44">
      <g>
       <use style="stroke:#000000;stroke-width:0.8;" x="119.741286" xlink:href="#ma1cf70900a" y="391.19275"/>
      </g>
     </g>
     <g id="text_16">
      <!-- 1000 -->
      <g transform="translate(107.016286 405.791188)scale(0.1 -0.1)">
       <use xlink:href="#DejaVuSans-49"/>
       <use x="63.623047" xlink:href="#DejaVuSans-48"/>
       <use x="127.246094" xlink:href="#DejaVuSans-48"/>
       <use x="190.869141" xlink:href="#DejaVuSans-48"/>
      </g>
     </g>
    </g>
    <g id="xtick_11">
     <g id="line2d_45">
      <path clip-path="url(#p6ffc33c595)" d="M 170.447992 391.19275  L 170.447992 275.422417  " style="fill:none;stroke:#b0b0b0;stroke-linecap:square;stroke-width:0.8;"/>
     </g>
     <g id="line2d_46">
      <g>
       <use style="stroke:#000000;stroke-width:0.8;" x="170.447992" xlink:href="#ma1cf70900a" y="391.19275"/>
      </g>
     </g>
     <g id="text_17">
      <!-- 2000 -->
      <g transform="translate(157.722992 405.791188)scale(0.1 -0.1)">
       <use xlink:href="#DejaVuSans-50"/>
       <use x="63.623047" xlink:href="#DejaVuSans-48"/>
       <use x="127.246094" xlink:href="#DejaVuSans-48"/>
       <use x="190.869141" xlink:href="#DejaVuSans-48"/>
      </g>
     </g>
    </g>
    <g id="xtick_12">
     <g id="line2d_47">
      <path clip-path="url(#p6ffc33c595)" d="M 221.154698 391.19275  L 221.154698 275.422417  " style="fill:none;stroke:#b0b0b0;stroke-linecap:square;stroke-width:0.8;"/>
     </g>
     <g id="line2d_48">
      <g>
       <use style="stroke:#000000;stroke-width:0.8;" x="221.154698" xlink:href="#ma1cf70900a" y="391.19275"/>
      </g>
     </g>
     <g id="text_18">
      <!-- 3000 -->
      <g transform="translate(208.429698 405.791188)scale(0.1 -0.1)">
       <use xlink:href="#DejaVuSans-51"/>
       <use x="63.623047" xlink:href="#DejaVuSans-48"/>
       <use x="127.246094" xlink:href="#DejaVuSans-48"/>
       <use x="190.869141" xlink:href="#DejaVuSans-48"/>
      </g>
     </g>
    </g>
    <g id="xtick_13">
     <g id="line2d_49">
      <path clip-path="url(#p6ffc33c595)" d="M 271.861403 391.19275  L 271.861403 275.422417  " style="fill:none;stroke:#b0b0b0;stroke-linecap:square;stroke-width:0.8;"/>
     </g>
     <g id="line2d_50">
      <g>
       <use style="stroke:#000000;stroke-width:0.8;" x="271.861403" xlink:href="#ma1cf70900a" y="391.19275"/>
      </g>
     </g>
     <g id="text_19">
      <!-- 4000 -->
      <g transform="translate(259.136403 405.791188)scale(0.1 -0.1)">
       <use xlink:href="#DejaVuSans-52"/>
       <use x="63.623047" xlink:href="#DejaVuSans-48"/>
       <use x="127.246094" xlink:href="#DejaVuSans-48"/>
       <use x="190.869141" xlink:href="#DejaVuSans-48"/>
      </g>
     </g>
    </g>
    <g id="xtick_14">
     <g id="line2d_51">
      <path clip-path="url(#p6ffc33c595)" d="M 322.568109 391.19275  L 322.568109 275.422417  " style="fill:none;stroke:#b0b0b0;stroke-linecap:square;stroke-width:0.8;"/>
     </g>
     <g id="line2d_52">
      <g>
       <use style="stroke:#000000;stroke-width:0.8;" x="322.568109" xlink:href="#ma1cf70900a" y="391.19275"/>
      </g>
     </g>
     <g id="text_20">
      <!-- 5000 -->
      <g transform="translate(309.843109 405.791188)scale(0.1 -0.1)">
       <defs>
        <path d="M 10.796875 72.90625  L 49.515625 72.90625  L 49.515625 64.59375  L 19.828125 64.59375  L 19.828125 46.734375  Q 21.96875 47.46875 24.109375 47.828125  Q 26.265625 48.1875 28.421875 48.1875  Q 40.625 48.1875 47.75 41.5  Q 54.890625 34.8125 54.890625 23.390625  Q 54.890625 11.625 47.5625 5.09375  Q 40.234375 -1.421875 26.90625 -1.421875  Q 22.3125 -1.421875 17.546875 -0.640625  Q 12.796875 0.140625 7.71875 1.703125  L 7.71875 11.625  Q 12.109375 9.234375 16.796875 8.0625  Q 21.484375 6.890625 26.703125 6.890625  Q 35.15625 6.890625 40.078125 11.328125  Q 45.015625 15.765625 45.015625 23.390625  Q 45.015625 31 40.078125 35.4375  Q 35.15625 39.890625 26.703125 39.890625  Q 22.75 39.890625 18.8125 39.015625  Q 14.890625 38.140625 10.796875 36.28125  z " id="DejaVuSans-53"/>
       </defs>
       <use xlink:href="#DejaVuSans-53"/>
       <use x="63.623047" xlink:href="#DejaVuSans-48"/>
       <use x="127.246094" xlink:href="#DejaVuSans-48"/>
       <use x="190.869141" xlink:href="#DejaVuSans-48"/>
      </g>
     </g>
    </g>
    <g id="xtick_15">
     <g id="line2d_53">
      <path clip-path="url(#p6ffc33c595)" d="M 373.274814 391.19275  L 373.274814 275.422417  " style="fill:none;stroke:#b0b0b0;stroke-linecap:square;stroke-width:0.8;"/>
     </g>
     <g id="line2d_54">
      <g>
       <use style="stroke:#000000;stroke-width:0.8;" x="373.274814" xlink:href="#ma1cf70900a" y="391.19275"/>
      </g>
     </g>
     <g id="text_21">
      <!-- 6000 -->
      <g transform="translate(360.549814 405.791188)scale(0.1 -0.1)">
       <use xlink:href="#DejaVuSans-54"/>
       <use x="63.623047" xlink:href="#DejaVuSans-48"/>
       <use x="127.246094" xlink:href="#DejaVuSans-48"/>
       <use x="190.869141" xlink:href="#DejaVuSans-48"/>
      </g>
     </g>
    </g>
    <g id="xtick_16">
     <g id="line2d_55">
      <path clip-path="url(#p6ffc33c595)" d="M 423.98152 391.19275  L 423.98152 275.422417  " style="fill:none;stroke:#b0b0b0;stroke-linecap:square;stroke-width:0.8;"/>
     </g>
     <g id="line2d_56">
      <g>
       <use style="stroke:#000000;stroke-width:0.8;" x="423.98152" xlink:href="#ma1cf70900a" y="391.19275"/>
      </g>
     </g>
     <g id="text_22">
      <!-- 7000 -->
      <g transform="translate(411.25652 405.791188)scale(0.1 -0.1)">
       <defs>
        <path d="M 8.203125 72.90625  L 55.078125 72.90625  L 55.078125 68.703125  L 28.609375 0  L 18.3125 0  L 43.21875 64.59375  L 8.203125 64.59375  z " id="DejaVuSans-55"/>
       </defs>
       <use xlink:href="#DejaVuSans-55"/>
       <use x="63.623047" xlink:href="#DejaVuSans-48"/>
       <use x="127.246094" xlink:href="#DejaVuSans-48"/>
       <use x="190.869141" xlink:href="#DejaVuSans-48"/>
      </g>
     </g>
    </g>
    <g id="text_23">
     <!-- Temps [minutes] -->
     <g transform="translate(209.92317 419.469313)scale(0.1 -0.1)">
      <use xlink:href="#DejaVuSans-84"/>
      <use x="44.083984" xlink:href="#DejaVuSans-101"/>
      <use x="105.607422" xlink:href="#DejaVuSans-109"/>
      <use x="203.019531" xlink:href="#DejaVuSans-112"/>
      <use x="266.496094" xlink:href="#DejaVuSans-115"/>
      <use x="318.595703" xlink:href="#DejaVuSans-32"/>
      <use x="350.382812" xlink:href="#DejaVuSans-91"/>
      <use x="389.396484" xlink:href="#DejaVuSans-109"/>
      <use x="486.808594" xlink:href="#DejaVuSans-105"/>
      <use x="514.591797" xlink:href="#DejaVuSans-110"/>
      <use x="577.970703" xlink:href="#DejaVuSans-117"/>
      <use x="641.349609" xlink:href="#DejaVuSans-116"/>
      <use x="680.558594" xlink:href="#DejaVuSans-101"/>
      <use x="742.082031" xlink:href="#DejaVuSans-115"/>
      <use x="794.181641" xlink:href="#DejaVuSans-93"/>
     </g>
    </g>
   </g>
   <g id="matplotlib.axis_4">
    <g id="ytick_6">
     <g id="line2d_57">
      <path clip-path="url(#p6ffc33c595)" d="M 50.779863 385.930462  L 452.383664 385.930462  " style="fill:none;stroke:#b0b0b0;stroke-linecap:square;stroke-width:0.8;"/>
     </g>
     <g id="line2d_58">
      <g>
       <use style="stroke:#000000;stroke-width:0.8;" x="50.779863" xlink:href="#mc38b1858b6" y="385.930462"/>
      </g>
     </g>
     <g id="text_24">
      <!-- 0.0 -->
      <g transform="translate(27.876737 389.729681)scale(0.1 -0.1)">
       <use xlink:href="#DejaVuSans-48"/>
       <use x="63.623047" xlink:href="#DejaVuSans-46"/>
       <use x="95.410156" xlink:href="#DejaVuSans-48"/>
      </g>
     </g>
    </g>
    <g id="ytick_7">
     <g id="line2d_59">
      <path clip-path="url(#p6ffc33c595)" d="M 50.779863 355.649919  L 452.383664 355.649919  " style="fill:none;stroke:#b0b0b0;stroke-linecap:square;stroke-width:0.8;"/>
     </g>
     <g id="line2d_60">
      <g>
       <use style="stroke:#000000;stroke-width:0.8;" x="50.779863" xlink:href="#mc38b1858b6" y="355.649919"/>
      </g>
     </g>
     <g id="text_25">
      <!-- 0.1 -->
      <g transform="translate(27.876737 359.449138)scale(0.1 -0.1)">
       <use xlink:href="#DejaVuSans-48"/>
       <use x="63.623047" xlink:href="#DejaVuSans-46"/>
       <use x="95.410156" xlink:href="#DejaVuSans-49"/>
      </g>
     </g>
    </g>
    <g id="ytick_8">
     <g id="line2d_61">
      <path clip-path="url(#p6ffc33c595)" d="M 50.779863 325.369376  L 452.383664 325.369376  " style="fill:none;stroke:#b0b0b0;stroke-linecap:square;stroke-width:0.8;"/>
     </g>
     <g id="line2d_62">
      <g>
       <use style="stroke:#000000;stroke-width:0.8;" x="50.779863" xlink:href="#mc38b1858b6" y="325.369376"/>
      </g>
     </g>
     <g id="text_26">
      <!-- 0.2 -->
      <g transform="translate(27.876737 329.168595)scale(0.1 -0.1)">
       <use xlink:href="#DejaVuSans-48"/>
       <use x="63.623047" xlink:href="#DejaVuSans-46"/>
       <use x="95.410156" xlink:href="#DejaVuSans-50"/>
      </g>
     </g>
    </g>
    <g id="ytick_9">
     <g id="line2d_63">
      <path clip-path="url(#p6ffc33c595)" d="M 50.779863 295.088833  L 452.383664 295.088833  " style="fill:none;stroke:#b0b0b0;stroke-linecap:square;stroke-width:0.8;"/>
     </g>
     <g id="line2d_64">
      <g>
       <use style="stroke:#000000;stroke-width:0.8;" x="50.779863" xlink:href="#mc38b1858b6" y="295.088833"/>
      </g>
     </g>
     <g id="text_27">
      <!-- 0.3 -->
      <g transform="translate(27.876737 298.888052)scale(0.1 -0.1)">
       <use xlink:href="#DejaVuSans-48"/>
       <use x="63.623047" xlink:href="#DejaVuSans-46"/>
       <use x="95.410156" xlink:href="#DejaVuSans-51"/>
      </g>
     </g>
    </g>
   </g>
   <g id="line2d_65">
    <path clip-path="url(#p6ffc33c595)" d="M 69.034581 385.930462  L 74.106265 368.114635  L 79.177443 353.315982  L 84.249128 341.021069  L 89.320305 330.808344  L 94.39199 322.32348  L 99.463168 315.275558  L 104.534852 309.420052  L 109.60603 304.556198  L 114.677715 300.515245  L 119.748892 297.158642  L 124.820577 294.369932  L 129.891755 292.053501  L 134.963439 290.128979  L 140.034617 288.530383  L 145.106302 287.202248  L 150.177479 286.099037  L 155.249164 285.182476  L 160.320342 284.421137  L 165.392026 283.788607  L 170.463204 283.263198  L 175.534889 282.826682  L 180.606066 282.464091  L 185.677751 282.162846  L 190.749436 281.912595  L 195.820613 281.704725  L 200.892298 281.532024  L 205.963983 281.388557  L 211.03516 281.269387  L 216.106845 281.170379  L 221.178023 281.088139  L 226.249707 281.019812  L 231.320885 280.963057  L 236.39257 280.915904  L 241.464254 280.876733  L 246.535432 280.844196  L 251.60661 280.817166  L 256.678294 280.794709  L 261.749979 280.776053  L 266.821157 280.760557  L 271.892841 280.747683  L 276.964019 280.736989  L 282.035704 280.728104  L 287.107388 280.720724  L 292.178566 280.714593  L 297.250251 280.709499  L 302.321428 280.705268  L 307.393113 280.701753  L 312.464291 280.698834  L 317.535975 280.696408  L 322.607153 280.694393  L 327.678838 280.692719  L 332.750522 280.691328  L 337.822207 280.690173  L 342.893385 280.689213  L 347.965069 280.688416  L 353.036247 280.687754  L 358.107932 280.687203  L 363.179109 280.686746  L 368.250794 280.686367  L 373.321972 280.686051  L 378.393656 280.685789  L 383.465341 280.685572  L 388.536519 280.685391  L 393.608203 280.68524  L 398.679381 280.685116  L 403.751066 280.685012  L 408.82275 280.684926  L 413.893928 280.684854  L 418.965613 280.684795  L 424.03679 280.684746  L 429.108475 280.684705  " style="fill:none;stroke:#000000;stroke-linecap:square;"/>
   </g>
   <g id="line2d_66">
    <path clip-path="url(#p6ffc33c595)" d="M 142.052237 385.930462  L 147.123921 361.041177  L 152.195099 342.491442  L 157.266784 328.663725  L 162.337961 318.358066  L 167.409646 310.675815  L 172.480824 304.95031  L 177.552508 300.682288  L 182.623686 297.501375  L 187.695371 295.130194  L 192.766548 293.362977  L 197.838233 292.045623  L 202.909411 291.063811  L 207.981095 290.33193  L 213.052273 289.786466  L 218.123958 289.379855  L 223.195135 289.076813  L 228.26682 288.850912  L 233.337998 288.682551  L 238.409682 288.557048  L 243.48086 288.463512  L 248.552545 288.393786  L 253.623722 288.34182  L 258.695407 288.303082  L 263.767092 288.274209  L 268.838269 288.252691  L 273.909954 288.23665  L 278.981639 288.224693  L 284.052816 288.215782  L 289.124501 288.20914  L 294.195679 288.204189  L 299.267363 288.200499  L 304.338541 288.197749  L 309.410226 288.195698  L 314.48191 288.19417  L 319.553088 288.193031  L 324.624266 288.192182  L 329.69595 288.191549  L 334.767635 288.191078  L 339.838813 288.190726  L 344.910497 288.190464  L 349.981675 288.190269  L 355.05336 288.190123  L 360.125044 288.190015  L 365.196222 288.189934  L 370.267907 288.189874  L 375.339084 288.189829  L 380.410769 288.189795  L 385.481947 288.18977  L 390.553631 288.189752  L 395.624809 288.189738  L 400.696494 288.189727  L 405.768178 288.18972  L 410.839863 288.189714  L 415.911041 288.18971  L 420.982725 288.189706  L 426.053903 288.189704  L 431.125588 288.189702  " style="fill:none;stroke:#000000;stroke-linecap:square;"/>
   </g>
   <g id="line2d_67">
    <path clip-path="url(#p6ffc33c595)" d="M 215.069893 385.930462  L 220.141578 382.027207  L 225.212755 379.147809  L 230.28444 377.023272  L 235.355617 375.45602  L 240.427302 374.299637  L 245.49848 373.446584  L 250.570165 372.817166  L 255.641342 372.352851  L 260.713027 372.01026  L 265.784204 371.757533  L 270.855889 371.571061  L 275.927067 371.433503  L 280.998751 371.332006  L 286.069929 371.257133  L 291.141614 371.201889  L 296.212791 371.161136  L 301.284476 371.131066  L 306.355654 371.108884  L 311.427338 371.092517  L 316.498516 371.080444  L 321.570201 371.071535  L 326.641378 371.064964  L 331.713063 371.060115  L 336.784748 371.056538  L 341.855925 371.053899  L 346.92761 371.051952  L 351.999295 371.050515  L 357.070472 371.049456  L 362.142157 371.048674  L 367.213335 371.048097  L 372.285019 371.047671  L 377.356197 371.047357  L 382.427882 371.047126  L 387.499566 371.046955  L 392.570744 371.046829  L 397.641922 371.046736  L 402.713606 371.046667  L 407.785291 371.046617  L 412.856469 371.046579  L 417.928153 371.046552  L 422.999331 371.046531  L 428.071016 371.046516  L 433.1427 371.046505  " style="fill:none;stroke:#000000;stroke-linecap:square;"/>
   </g>
   <g id="line2d_68">
    <path clip-path="url(#p6ffc33c595)" d="M 288.087549 385.930462  L 293.159234 383.544633  L 298.230411 381.517521  L 303.302096 379.794848  L 308.373274 378.331185  L 313.444958 377.087339  L 318.516136 376.03051  L 323.587821 375.132399  L 328.658998 374.369323  L 333.730683 373.720847  L 338.801861 373.169872  L 343.873545 372.701644  L 348.944723 372.303816  L 354.016408 371.965736  L 359.087585 371.678486  L 364.15927 371.434377  L 369.230447 371.22697  L 374.302132 371.050713  L 379.37331 370.900956  L 384.444994 370.773691  L 389.516172 370.66556  L 394.587857 370.573668  L 399.659034 370.495593  L 404.730719 370.429244  L 409.802404 370.372865  L 414.873581 370.324962  L 419.945266 370.284254  L 425.016951 370.249664  L 430.088128 370.220274  " style="fill:none;stroke:#000000;stroke-linecap:square;"/>
   </g>
   <g id="line2d_69">
    <path clip-path="url(#p6ffc33c595)" d="M 361.105205 385.930462  L 366.17689 383.055191  L 371.248067 380.524669  L 376.319752 378.297114  L 381.39093 376.336647  L 386.462614 374.610896  L 391.533792 373.092066  L 396.605477 371.755078  L 401.676654 370.578397  L 406.748339 369.542594  L 411.819517 368.630985  L 416.891201 367.828519  L 421.962379 367.12227  L 427.034064 366.500576  L 432.105241 365.953425  " style="fill:none;stroke:#000000;stroke-linecap:square;"/>
   </g>
   <g id="line2d_70">
    <path clip-path="url(#p6ffc33c595)" d="M 69.034581 391.19275  L 69.034581 275.422417  " style="fill:none;stroke:#00ff00;stroke-linecap:square;stroke-width:1.5;"/>
   </g>
   <g id="line2d_71">
    <path clip-path="url(#p6ffc33c595)" d="M 142.052237 391.19275  L 142.052237 275.422417  " style="fill:none;stroke:#00ff00;stroke-linecap:square;stroke-width:1.5;"/>
   </g>
   <g id="line2d_72">
    <path clip-path="url(#p6ffc33c595)" d="M 215.069893 391.19275  L 215.069893 275.422417  " style="fill:none;stroke:#00ff00;stroke-linecap:square;stroke-width:1.5;"/>
   </g>
   <g id="line2d_73">
    <path clip-path="url(#p6ffc33c595)" d="M 288.087549 391.19275  L 288.087549 275.422417  " style="fill:none;stroke:#00ff00;stroke-linecap:square;stroke-width:1.5;"/>
   </g>
   <g id="line2d_74">
    <path clip-path="url(#p6ffc33c595)" d="M 361.105205 391.19275  L 361.105205 275.422417  " style="fill:none;stroke:#00ff00;stroke-linecap:square;stroke-width:1.5;"/>
   </g>
   <g id="line2d_75">
    <path clip-path="url(#p6ffc33c595)" d="M 434.122861 391.19275  L 434.122861 275.422417  " style="fill:none;stroke:#00ff00;stroke-linecap:square;stroke-width:1.5;"/>
   </g>
   <g id="patch_9">
    <path d="M 50.779863 391.19275  L 50.779863 275.422417  " style="fill:none;stroke:#000000;stroke-linecap:square;stroke-linejoin:miter;stroke-width:0.8;"/>
   </g>
   <g id="patch_10">
    <path d="M 452.383664 391.19275  L 452.383664 275.422417  " style="fill:none;stroke:#000000;stroke-linecap:square;stroke-linejoin:miter;stroke-width:0.8;"/>
   </g>
   <g id="patch_11">
    <path d="M 50.779863 391.19275  L 452.383664 391.19275  " style="fill:none;stroke:#000000;stroke-linecap:square;stroke-linejoin:miter;stroke-width:0.8;"/>
   </g>
   <g id="patch_12">
    <path d="M 50.779863 275.422417  L 452.383664 275.422417  " style="fill:none;stroke:#000000;stroke-linecap:square;stroke-linejoin:miter;stroke-width:0.8;"/>
   </g>
  </g>
  <g id="axes_3">
   <g id="matplotlib.axis_5">
    <g id="ytick_10">
     <g id="line2d_76">
      <defs>
       <path d="M 0 0  L 3.5 0  " id="mec9985de22" style="stroke:#000000;stroke-width:0.8;"/>
      </defs>
      <g>
       <use style="stroke:#000000;stroke-width:0.8;" x="452.383664" xlink:href="#mec9985de22" y="249.713917"/>
      </g>
     </g>
     <g id="text_28">
      <!-- 0 -->
      <g transform="translate(459.383664 253.513135)scale(0.1 -0.1)">
       <use xlink:href="#DejaVuSans-48"/>
      </g>
     </g>
    </g>
    <g id="ytick_11">
     <g id="line2d_77">
      <g>
       <use style="stroke:#000000;stroke-width:0.8;" x="452.383664" xlink:href="#mec9985de22" y="216.636679"/>
      </g>
     </g>
     <g id="text_29">
      <!-- 20 -->
      <g transform="translate(459.383664 220.435897)scale(0.1 -0.1)">
       <use xlink:href="#DejaVuSans-50"/>
       <use x="63.623047" xlink:href="#DejaVuSans-48"/>
      </g>
     </g>
    </g>
    <g id="ytick_12">
     <g id="line2d_78">
      <g>
       <use style="stroke:#000000;stroke-width:0.8;" x="452.383664" xlink:href="#mec9985de22" y="183.55944"/>
      </g>
     </g>
     <g id="text_30">
      <!-- 40 -->
      <g transform="translate(459.383664 187.358659)scale(0.1 -0.1)">
       <use xlink:href="#DejaVuSans-52"/>
       <use x="63.623047" xlink:href="#DejaVuSans-48"/>
      </g>
     </g>
    </g>
    <g id="ytick_13">
     <g id="line2d_79">
      <g>
       <use style="stroke:#000000;stroke-width:0.8;" x="452.383664" xlink:href="#mec9985de22" y="150.482202"/>
      </g>
     </g>
     <g id="text_31">
      <!-- 60 -->
      <g transform="translate(459.383664 154.281421)scale(0.1 -0.1)">
       <use xlink:href="#DejaVuSans-54"/>
       <use x="63.623047" xlink:href="#DejaVuSans-48"/>
      </g>
     </g>
    </g>
    <g id="ytick_14">
     <g id="line2d_80">
      <g>
       <use style="stroke:#000000;stroke-width:0.8;" x="452.383664" xlink:href="#mec9985de22" y="117.404964"/>
      </g>
     </g>
     <g id="text_32">
      <!-- 80 -->
      <g transform="translate(459.383664 121.204183)scale(0.1 -0.1)">
       <use xlink:href="#DejaVuSans-56"/>
       <use x="63.623047" xlink:href="#DejaVuSans-48"/>
      </g>
     </g>
    </g>
    <g id="ytick_15">
     <g id="line2d_81">
      <g>
       <use style="stroke:#000000;stroke-width:0.8;" x="452.383664" xlink:href="#mec9985de22" y="84.327726"/>
      </g>
     </g>
     <g id="text_33">
      <!-- 100 -->
      <g transform="translate(459.383664 88.126945)scale(0.1 -0.1)">
       <use xlink:href="#DejaVuSans-49"/>
       <use x="63.623047" xlink:href="#DejaVuSans-48"/>
       <use x="127.246094" xlink:href="#DejaVuSans-48"/>
      </g>
     </g>
    </g>
    <g id="ytick_16">
     <g id="line2d_82">
      <g>
       <use style="stroke:#000000;stroke-width:0.8;" x="452.383664" xlink:href="#mec9985de22" y="51.250488"/>
      </g>
     </g>
     <g id="text_34">
      <!-- 120 -->
      <g transform="translate(459.383664 55.049707)scale(0.1 -0.1)">
       <use xlink:href="#DejaVuSans-49"/>
       <use x="63.623047" xlink:href="#DejaVuSans-50"/>
       <use x="127.246094" xlink:href="#DejaVuSans-48"/>
      </g>
     </g>
    </g>
    <g id="ytick_17">
     <g id="line2d_83">
      <g>
       <use style="stroke:#000000;stroke-width:0.8;" x="452.383664" xlink:href="#mec9985de22" y="18.17325"/>
      </g>
     </g>
     <g id="text_35">
      <!-- 140 -->
      <g transform="translate(459.383664 21.972469)scale(0.1 -0.1)">
       <use xlink:href="#DejaVuSans-49"/>
       <use x="63.623047" xlink:href="#DejaVuSans-52"/>
       <use x="127.246094" xlink:href="#DejaVuSans-48"/>
      </g>
     </g>
    </g>
    <g id="text_36">
     <!-- Température [°C] -->
     <g transform="translate(490.469602 177.095146)rotate(-90)scale(0.1 -0.1)">
      <defs>
       <path d="M 25 67.921875  Q 21.09375 67.921875 18.40625 65.203125  Q 15.71875 62.5 15.71875 58.59375  Q 15.71875 54.734375 18.40625 52.078125  Q 21.09375 49.421875 25 49.421875  Q 28.90625 49.421875 31.59375 52.078125  Q 34.28125 54.734375 34.28125 58.59375  Q 34.28125 62.453125 31.5625 65.1875  Q 28.859375 67.921875 25 67.921875  z M 25 74.21875  Q 28.125 74.21875 31 73.015625  Q 33.890625 71.828125 35.984375 69.578125  Q 38.234375 67.390625 39.359375 64.59375  Q 40.484375 61.8125 40.484375 58.59375  Q 40.484375 52.15625 35.96875 47.6875  Q 31.453125 43.21875 24.90625 43.21875  Q 18.3125 43.21875 13.90625 47.609375  Q 9.515625 52 9.515625 58.59375  Q 9.515625 65.140625 14 69.671875  Q 18.5 74.21875 25 74.21875  z " id="DejaVuSans-176"/>
      </defs>
      <use xlink:href="#DejaVuSans-84"/>
      <use x="44.083984" xlink:href="#DejaVuSans-101"/>
      <use x="105.607422" xlink:href="#DejaVuSans-109"/>
      <use x="203.019531" xlink:href="#DejaVuSans-112"/>
      <use x="266.496094" xlink:href="#DejaVuSans-233"/>
      <use x="328.019531" xlink:href="#DejaVuSans-114"/>
      <use x="369.132812" xlink:href="#DejaVuSans-97"/>
      <use x="430.412109" xlink:href="#DejaVuSans-116"/>
      <use x="469.621094" xlink:href="#DejaVuSans-117"/>
      <use x="533" xlink:href="#DejaVuSans-114"/>
      <use x="571.863281" xlink:href="#DejaVuSans-101"/>
      <use x="633.386719" xlink:href="#DejaVuSans-32"/>
      <use x="665.173828" xlink:href="#DejaVuSans-91"/>
      <use x="704.1875" xlink:href="#DejaVuSans-176"/>
      <use x="754.1875" xlink:href="#DejaVuSans-67"/>
      <use x="824.011719" xlink:href="#DejaVuSans-93"/>
     </g>
    </g>
   </g>
   <g id="line2d_84">
    <path clip-path="url(#pb7ebd65f80)" d="M 69.034581 208.367369  L 140.034617 208.367369  L 142.063392 167.020821  L 213.063936 167.020821  L 215.092204 125.674274  L 286.092747 125.674274  L 288.121522 84.327726  L 359.122066 84.327726  L 361.150841 42.981179  L 432.151384 42.981179  L 432.151384 42.981179  " style="fill:none;stroke:#ffa500;stroke-linecap:square;"/>
   </g>
   <g id="patch_13">
    <path d="M 50.779863 249.713917  L 50.779863 18.17325  " style="fill:none;stroke:#000000;stroke-linecap:square;stroke-linejoin:miter;stroke-width:0.8;"/>
   </g>
   <g id="patch_14">
    <path d="M 452.383664 249.713917  L 452.383664 18.17325  " style="fill:none;stroke:#000000;stroke-linecap:square;stroke-linejoin:miter;stroke-width:0.8;"/>
   </g>
   <g id="patch_15">
    <path d="M 50.779863 249.713917  L 452.383664 249.713917  " style="fill:none;stroke:#000000;stroke-linecap:square;stroke-linejoin:miter;stroke-width:0.8;"/>
   </g>
   <g id="patch_16">
    <path d="M 50.779863 18.17325  L 452.383664 18.17325  " style="fill:none;stroke:#000000;stroke-linecap:square;stroke-linejoin:miter;stroke-width:0.8;"/>
   </g>
  </g>
 </g>
 <defs>
  <clipPath id="pb7ebd65f80">
   <rect height="231.540667" width="401.603802" x="50.779863" y="18.17325"/>
  </clipPath>
  <clipPath id="p6ffc33c595">
   <rect height="115.770333" width="401.603802" x="50.779863" y="275.422417"/>
  </clipPath>
 </defs>
</svg>